<svg width="167" height="36" viewBox="0 0 167 36" fill="none" xmlns="http://www.w3.org/2000/svg">
<circle cx="17.1896" cy="17.1896" r="16.8146" fill="#2BAC76"/>
<path d="M49.4236 4.62157C50.8741 2.10922 54.5004 2.10922 55.9509 4.62157L67.7608 25.077C69.2113 27.5893 67.3982 30.7298 64.4972 30.7298H40.8773C37.9763 30.7298 36.1632 27.5893 37.6137 25.077L49.4236 4.62157Z" fill="#2BAC76"/>
<path d="M79.3648 28.6897L84.1979 5.82277H89.7973C91.2571 5.82277 92.4354 6.05217 93.3321 6.51097C94.2289 6.96977 94.8858 7.61104 95.3029 8.4348C95.7199 9.24812 95.9285 10.2022 95.9285 11.2971C95.9285 12.3919 95.7721 13.5181 95.4593 14.6755C95.1465 15.8225 94.6512 16.8809 93.9734 17.8506C93.306 18.8203 92.4406 19.6076 91.377 20.2124C90.3239 20.8067 89.0517 21.1039 87.5606 21.1039H86.3094L84.714 28.6897H79.3648ZM87.2791 16.4898H87.6545C88.228 16.4898 88.7181 16.2969 89.1247 15.9111C89.5314 15.5253 89.8442 14.9987 90.0632 14.3314C90.2926 13.6536 90.4073 12.8768 90.4073 12.0009C90.4073 11.3753 90.2821 10.9582 90.0319 10.7496C89.7816 10.5411 89.3958 10.4368 88.8745 10.4368H88.5929L87.2791 16.4898ZM94.1773 28.6897L99.0104 5.82277H104.172C106.528 5.82277 108.249 6.292 109.333 7.23045C110.418 8.15847 110.96 9.49316 110.96 11.2345C110.96 12.5379 110.783 13.7058 110.428 14.7381C110.084 15.7704 109.589 16.6567 108.942 17.397C108.296 18.1269 107.535 18.69 106.659 19.0862L109.099 28.6897H103.171L101.638 20.1967H101.278L99.5265 28.6897H94.1773ZM102.248 15.8798H102.702C103.15 15.8798 103.536 15.7651 103.859 15.5357C104.182 15.2959 104.448 14.9831 104.657 14.5973C104.865 14.2115 105.022 13.7892 105.126 13.3304C105.23 12.8716 105.282 12.418 105.282 11.9696C105.282 11.417 105.157 10.9999 104.907 10.7184C104.657 10.4368 104.271 10.2961 103.75 10.2961H103.405L102.248 15.8798ZM117.655 29.0025C116.143 29.0025 114.892 28.7314 113.901 28.1892C112.921 27.6365 112.191 26.7919 111.711 25.6554C111.232 24.5084 110.992 23.0434 110.992 21.2603C110.992 20.0612 111.096 18.8412 111.305 17.6003C111.513 16.3595 111.821 15.1499 112.228 13.9717C112.645 12.783 113.156 11.6777 113.76 10.6558C114.365 9.63393 115.064 8.73197 115.856 7.94993C116.649 7.16789 117.53 6.55789 118.499 6.11995C119.48 5.68201 120.543 5.46303 121.69 5.46303C123.995 5.46303 125.663 6.11995 126.695 7.43378C127.738 8.73718 128.259 10.6558 128.259 13.1896C128.259 14.2115 128.171 15.3116 127.993 16.4898C127.827 17.6577 127.561 18.836 127.196 20.0247C126.831 21.2029 126.367 22.3291 125.804 23.4031C125.241 24.4771 124.563 25.4364 123.77 26.281C122.988 27.1152 122.086 27.7773 121.065 28.2674C120.053 28.7575 118.917 29.0025 117.655 29.0025ZM118.03 24.2321C118.52 24.2321 118.974 24.0444 119.391 23.669C119.819 23.2936 120.204 22.7931 120.548 22.1675C120.893 21.5314 121.195 20.8171 121.456 20.0247C121.727 19.2322 121.951 18.4189 122.128 17.5847C122.305 16.7401 122.441 15.9268 122.535 15.1447C122.629 14.3523 122.676 13.6484 122.676 13.0332C122.676 12.053 122.55 11.3284 122.3 10.8591C122.05 10.3795 121.695 10.1396 121.237 10.1396C120.747 10.1396 120.293 10.3273 119.876 10.7027C119.459 11.0677 119.073 11.5682 118.718 12.2042C118.374 12.8299 118.072 13.5337 117.811 14.3158C117.551 15.0978 117.326 15.9111 117.139 16.7557C116.961 17.5899 116.826 18.398 116.732 19.1801C116.638 19.9621 116.591 20.6659 116.591 21.2916C116.591 22.0945 116.643 22.7097 116.748 23.1372C116.862 23.5543 117.029 23.841 117.248 23.9974C117.467 24.1539 117.728 24.2321 118.03 24.2321ZM125.57 35.8688C124.902 35.8688 124.334 35.8376 123.865 35.775C123.396 35.7124 122.958 35.6134 122.551 35.4778L123.552 30.8012C123.855 30.9472 124.146 31.0567 124.428 31.1297C124.71 31.2131 124.981 31.2548 125.241 31.2548C125.825 31.2548 126.289 31.0254 126.633 30.5666C126.967 30.1078 127.228 29.5604 127.415 28.9243C127.593 28.2882 127.733 27.7095 127.838 27.1882L132.389 5.82277H137.738L133.062 27.9546C132.655 29.8523 132.092 31.3799 131.373 32.5373C130.663 33.7052 129.819 34.5498 128.839 35.0712C127.869 35.603 126.779 35.8688 125.57 35.8688ZM135.643 28.6897L140.476 5.82277H150.862L149.892 10.4368H144.871L143.964 14.566H148.641L147.655 19.1801H143.01L141.946 24.0131H147.014L146.013 28.6897H135.643ZM146.686 28.6897L154.053 17.2562L151.816 5.82277H157.416L158.151 11.516L161.201 5.82277H166.972L160.075 17.0685L162.796 28.6897H157.009L156.071 22.668L152.426 28.6897H146.686Z" fill="#252525"/>
</svg>
